<svg width="272" height="272" viewBox="0 0 272 272" fill="none" xmlns="http://www.w3.org/2000/svg">
<g clip-path="url(#clip0_510_8)">
<rect width="272" height="272" rx="136" fill="url(#paint0_linear_510_8)"/>
<path d="M93.5 161.687C94.792 177.905 107.61 190.536 130.594 192.032V204H140.794V191.947C164.594 190.281 178.5 177.565 178.5 159.103C178.5 142.324 167.858 133.671 148.835 129.183L140.794 127.279V94.69C150.994 95.846 157.488 101.422 159.052 109.14H176.936C175.644 93.517 162.248 81.294 140.794 79.968V68H130.594V80.223C110.279 82.212 96.424 94.435 96.424 111.724C96.424 127.024 106.726 136.748 123.845 140.743L130.594 142.409V176.987C120.139 175.406 113.22 169.677 111.656 161.687H93.5ZM130.509 124.865C120.479 122.536 115.039 117.793 115.039 110.653C115.039 102.663 120.904 96.679 130.594 94.928V124.848L130.509 124.865ZM142.273 145.146C154.462 147.968 160.089 152.541 160.089 160.616C160.089 169.83 153.085 176.154 140.794 177.31V144.806L142.273 145.146Z" fill="#F0FFFF"/>
<path d="M136 255C104.439 255 74.1711 242.463 51.8543 220.146C29.5375 197.829 17 167.561 17 136C17 104.439 29.5375 74.1711 51.8543 51.8543C74.1711 29.5375 104.439 17 136 17C167.561 17 197.829 29.5375 220.146 51.8543C242.463 74.1711 255 104.439 255 136C255 167.561 242.463 197.829 220.146 220.146C197.829 242.463 167.561 255 136 255ZM136 272C172.069 272 206.662 257.671 232.167 232.167C257.671 206.662 272 172.069 272 136C272 99.9306 257.671 65.3384 232.167 39.8335C206.662 14.3285 172.069 0 136 0C99.9306 0 65.3384 14.3285 39.8335 39.8335C14.3285 65.3384 0 99.9306 0 136C0 172.069 14.3285 206.662 39.8335 232.167C65.3384 257.671 99.9306 272 136 272Z" fill="#F0FFFF"/>
<path d="M136 229.5C111.202 229.5 87.4202 219.649 69.8855 202.114C52.3509 184.58 42.5 160.798 42.5 136C42.5 111.202 52.3509 87.4202 69.8855 69.8855C87.4202 52.3509 111.202 42.5 136 42.5C160.798 42.5 184.58 52.3509 202.114 69.8855C219.649 87.4202 229.5 111.202 229.5 136C229.5 160.798 219.649 184.58 202.114 202.114C184.58 219.649 160.798 229.5 136 229.5ZM136 238C149.395 238 162.659 235.362 175.034 230.236C187.409 225.11 198.653 217.596 208.125 208.125C217.596 198.653 225.11 187.409 230.236 175.034C235.362 162.659 238 149.395 238 136C238 122.605 235.362 109.341 230.236 96.9663C225.11 84.5911 217.596 73.3467 208.125 63.8751C198.653 54.4035 187.409 46.8903 175.034 41.7643C162.659 36.6383 149.395 34 136 34C108.948 34 83.0038 44.7464 63.8751 63.8751C44.7464 83.0038 34 108.948 34 136C34 163.052 44.7464 188.996 63.8751 208.125C83.0038 227.254 108.948 238 136 238Z" fill="#F0FFFF"/>
</g>
<defs>
<linearGradient id="paint0_linear_510_8" x1="19" y1="-80.5" x2="136" y2="272" gradientUnits="userSpaceOnUse">
<stop stop-color="#FD7335"/>
<stop offset="1" stop-color="#F33B71"/>
</linearGradient>
<clipPath id="clip0_510_8">
<rect width="272" height="272" rx="136" fill="white"/>
</clipPath>
</defs>
</svg>
